<?xml version="1.0" encoding="utf-8"?>
<!-- Generator: Adobe Illustrator 16.0.0, SVG Export Plug-In . SVG Version: 6.00 Build 0)  -->
<!DOCTYPE svg PUBLIC "-//W3C//DTD SVG 1.1//EN" "http://www.w3.org/Graphics/SVG/1.1/DTD/svg11.dtd">
<svg version="1.1"
	 id="Layer_1" sodipodi:docname="payment-stop.svg" inkscape:version="0.91 r13725" xmlns:svg="http://www.w3.org/2000/svg" xmlns:inkscape="http://www.inkscape.org/namespaces/inkscape" xmlns:sodipodi="http://sodipodi.sourceforge.net/DTD/sodipodi-0.dtd" xmlns:cc="http://creativecommons.org/ns#" xmlns:rdf="http://www.w3.org/1999/02/22-rdf-syntax-ns#" xmlns:dc="http://purl.org/dc/elements/1.1/"
	 xmlns="http://www.w3.org/2000/svg" xmlns:xlink="http://www.w3.org/1999/xlink" x="0px" y="0px" width="128px" height="128px"
	 viewBox="0 0 128 128" enable-background="new 0 0 128 128" xml:space="preserve">
<sodipodi:namedview  id="namedview59" inkscape:current-layer="Layer_1" inkscape:window-maximized="1" inkscape:window-y="34" inkscape:window-x="0" inkscape:window-height="708" inkscape:window-width="1366" inkscape:pageshadow="2" inkscape:pageopacity="0" objecttolerance="10" bordercolor="#666666" pagecolor="#ffffff" borderopacity="1" guidetolerance="10" gridtolerance="10" showguides="false" showgrid="false" inkscape:zoom="0.69681708" inkscape:cx="600.17873" inkscape:cy="182.93328">
	</sodipodi:namedview>
<circle id="circle3" fill="#7E3AA6" cx="64" cy="64" r="64"/>
<g id="g29">
</g>
<g id="g31">
</g>
<g id="g33">
</g>
<g id="g35">
</g>
<g id="g37">
</g>
<g id="g39">
</g>
<g id="g41">
</g>
<g id="g43">
</g>
<g id="g45">
</g>
<g id="g47">
</g>
<g id="g49">
</g>
<g id="g51">
</g>
<g id="g53">
</g>
<g id="g55">
</g>
<g id="g57">
</g>
<g>
	<defs>
		<circle id="SVGID_1_" cx="64" cy="64" r="64"/>
	</defs>
	<clipPath id="SVGID_2_">
		<use xlink:href="#SVGID_1_"  overflow="visible"/>
	</clipPath>
	<polygon clip-path="url(#SVGID_2_)" fill="#421800" points="101.748,66.508 101.748,125.977 26.396,124.693 26.396,65.227 	"/>
	<path clip-path="url(#SVGID_2_)" fill="#F0D0B4" d="M92.48,39.646v17.535c0,0.308-0.008,0.615-0.014,0.924
		c-0.008,0.252-0.014,0.496-0.028,0.748c-0.007,0.224-0.021,0.447-0.042,0.672c-0.006,0.16-0.02,0.321-0.034,0.482
		c-0.007,0.098-0.014,0.188-0.028,0.287c-0.014,0.174-0.028,0.355-0.057,0.531c-0.027,0.336-0.069,0.664-0.118,1
		c-0.007,0.084-0.021,0.168-0.035,0.252c-0.021,0.168-0.049,0.336-0.077,0.503v0.021c-0.041,0.244-0.083,0.482-0.126,0.728
		c-0.063,0.336-0.126,0.671-0.195,1c-0.007,0.015-0.007,0.028-0.014,0.042c-0.007,0.049-0.015,0.098-0.028,0.147
		c-0.007,0.015-0.007,0.028-0.014,0.042c-0.035,0.182-0.076,0.356-0.119,0.531c-0.014,0.077-0.027,0.154-0.056,0.23
		c-0.021,0.126-0.056,0.252-0.084,0.378c-0.021,0.069-0.035,0.147-0.063,0.217c-0.014,0.063-0.034,0.126-0.049,0.183
		c-0.146,0.573-0.314,1.133-0.49,1.692c-0.083,0.267-0.167,0.524-0.258,0.79c-0.008,0.028-0.021,0.057-0.027,0.084
		c-0.085,0.238-0.169,0.476-0.252,0.714c-0.028,0.07-0.057,0.14-0.085,0.218c-0.083,0.223-0.167,0.447-0.259,0.671
		c-0.104,0.272-0.217,0.538-0.328,0.805c-0.098,0.238-0.203,0.476-0.308,0.713c-0.015,0.042-0.035,0.077-0.049,0.119
		c-0.119,0.252-0.23,0.503-0.35,0.749c-0.119,0.258-0.245,0.518-0.378,0.775c-0.252,0.512-0.524,1.021-0.798,1.518l-0.378,0.672
		c-1.077,1.854-2.273,3.596-3.574,5.203c-0.176,0.232-0.356,0.455-0.546,0.672c-0.259,0.314-0.524,0.623-0.79,0.924
		c-0.224,0.252-0.455,0.51-0.693,0.755c-0.007,0.015-0.014,0.021-0.027,0.034c-0.672,0.722-1.357,1.406-2.057,2.051
		c-0.14,0.14-0.287,0.266-0.434,0.398c-0.238,0.217-0.476,0.427-0.721,0.629c-0.188,0.168-0.385,0.329-0.58,0.49
		c-0.504,0.412-1.007,0.811-1.518,1.182c-0.21,0.16-0.427,0.315-0.643,0.463c-0.35,0.251-0.707,0.489-1.064,0.72
		c-0.195,0.133-0.398,0.259-0.602,0.378c-0.714,0.441-1.434,0.847-2.146,1.196c-0.176,0.091-0.35,0.175-0.525,0.259
		s-0.356,0.168-0.546,0.252c-0.231,0.105-0.462,0.203-0.692,0.294c-0.092,0.042-0.183,0.077-0.272,0.104
		c-0.272,0.112-0.552,0.217-0.825,0.309c-0.344,0.126-0.693,0.23-1.035,0.328c-0.238,0.07-0.482,0.133-0.721,0.188
		c-0.014,0.007-0.029,0.015-0.049,0.015c-0.238,0.055-0.476,0.111-0.714,0.154c-0.063,0.014-0.126,0.027-0.188,0.034
		c-0.195,0.036-0.392,0.071-0.588,0.091c-0.279,0.043-0.559,0.077-0.839,0.092c-0.097,0.014-0.188,0.021-0.287,0.021
		c-0.224,0.014-0.44,0.02-0.657,0.02h-0.027c-0.217,0-0.435-0.006-0.651-0.02c-0.083,0-0.167-0.008-0.251-0.021
		c-0.195-0.007-0.399-0.028-0.609-0.057c-0.043,0-0.091-0.007-0.133-0.013c-0.259-0.036-0.518-0.077-0.783-0.127
		c-0.224-0.034-0.447-0.083-0.678-0.14c-1.196-0.272-2.428-0.686-3.672-1.238c-1.063-0.468-2.141-1.034-3.211-1.691
		c-0.539-0.328-1.077-0.68-1.609-1.05c-0.266-0.188-0.531-0.378-0.797-0.573c-0.832-0.609-1.658-1.273-2.469-1.986
		c-0.224-0.203-0.447-0.406-0.672-0.615c-0.223-0.203-0.447-0.413-0.664-0.615c-0.518-0.496-1.021-1.008-1.504-1.547
		c-0.035-0.027-0.063-0.063-0.092-0.09c-0.203-0.217-0.406-0.441-0.607-0.672c-0.56-0.63-1.105-1.28-1.623-1.959
		c-0.203-0.244-0.393-0.495-0.581-0.748c-0.707-0.938-1.378-1.916-2.008-2.932c-0.167-0.272-0.335-0.552-0.495-0.824
		c-0.196-0.329-0.385-0.665-0.574-1c-0.699-1.26-1.344-2.567-1.902-3.918c-0.084-0.195-0.168-0.392-0.238-0.588
		c-0.112-0.252-0.211-0.511-0.301-0.762c-0.14-0.371-0.272-0.742-0.398-1.112s-0.244-0.749-0.363-1.126
		c-0.113-0.363-0.217-0.727-0.315-1.098c-0.112-0.393-0.217-0.791-0.308-1.196c-0.008-0.042-0.021-0.085-0.028-0.126
		c-0.133-0.559-0.251-1.126-0.356-1.699c-0.14-0.756-0.251-1.525-0.336-2.301c-0.034-0.245-0.055-0.49-0.076-0.734
		c-0.028-0.259-0.049-0.511-0.063-0.77c-0.035-0.469-0.057-0.945-0.071-1.42c-0.007-0.308-0.015-0.616-0.015-0.924V39.646
		c0-15.199,11.913-27.621,26.915-28.433c0.028-0.008,0.05-0.008,0.077-0.008c0.195-0.007,0.392-0.015,0.588-0.021
		c0.293-0.008,0.58-0.015,0.874-0.015h0.028c0.3,0,0.602,0.007,0.902,0.015c0.23,0.006,0.461,0.014,0.691,0.028h0.021
		c1.602,0.091,3.176,0.313,4.693,0.657c1.854,0.42,3.637,1.021,5.329,1.783c2.31,1.035,4.456,2.364,6.387,3.952
		c1.622,1.329,3.099,2.826,4.386,4.477c3.749,4.777,6.008,10.778,6.057,17.312C92.48,39.479,92.48,39.563,92.48,39.646z"/>
	<path clip-path="url(#SVGID_2_)" fill="#F0D0B4" d="M101.105,136.57v0.007H26.9v-0.007c0-4.148,0.678-8.149,1.943-11.877
		c0.015-0.035,0.021-0.07,0.035-0.104c0.23-0.679,0.482-1.35,0.756-2.015v-0.008c0.266-0.664,0.559-1.314,0.867-1.958
		c1.224-2.581,2.748-4.994,4.518-7.204c0.448-0.553,0.903-1.092,1.372-1.609c0.23-0.266,0.476-0.523,0.72-0.782
		c0.246-0.252,0.49-0.503,0.742-0.755c1.252-1.253,2.595-2.399,4.008-3.455c0.707-0.525,1.42-1.016,2.162-1.49
		c0.098-0.063,0.195-0.126,0.293-0.182c0.273-0.176,0.547-0.344,0.826-0.504c0.378-0.224,0.762-0.441,1.147-0.65
		c0.015-0.014,0.028-0.014,0.028-0.014c0.301-0.161,0.594-0.336,0.889-0.518c0.873-0.525,1.714-1.105,2.51-1.749
		c3.379-2.685,5.995-6.295,7.484-10.437c0.435-1.217,0.777-2.482,1.008-3.783c0.238-1.344,0.363-2.728,0.363-4.141l5.406,0.027
		h0.091l5.47,0.028c0,1.386,0.119,2.741,0.351,4.064c0.224,1.301,0.56,2.56,0.985,3.771c1.469,4.154,4.078,7.777,7.457,10.477
		c0.503,0.413,1.014,0.791,1.552,1.147c0.057,0.043,0.104,0.077,0.161,0.112c0.252,0.168,0.504,0.336,0.77,0.49
		c0.287,0.175,0.581,0.35,0.875,0.51c0.048,0.014,0.091,0.035,0.125,0.063c0.616,0.343,1.225,0.699,1.819,1.07
		c0.048,0.028,0.091,0.056,0.14,0.091c0.238,0.146,0.482,0.301,0.713,0.469c0.582,0.371,1.148,0.777,1.7,1.197
		c0,0.006,0.007,0.006,0.007,0.006h0.008c0.707,0.525,1.392,1.085,2.063,1.658c0.672,0.574,1.315,1.176,1.938,1.799
		c4.016,3.993,7.113,8.903,8.961,14.381C100.42,128.422,101.105,132.416,101.105,136.57z"/>
	<path clip-path="url(#SVGID_2_)" fill="#6F1AA1" d="M101.105,136.57H26.9c0-4.148,0.678-8.149,1.943-11.877
		c0.015-0.035,0.021-0.07,0.035-0.104c0.23-0.679,0.482-1.35,0.756-2.015v-0.008c0.266-0.664,0.559-1.314,0.867-1.958
		c1.224-2.581,2.748-4.994,4.518-7.204c0.448-0.553,0.903-1.092,1.372-1.609c0.23-0.266,0.476-0.523,0.72-0.782
		c0.246-0.252,0.49-0.503,0.742-0.755c1.252-1.253,2.595-2.399,4.008-3.455c0.707-0.525,1.42-1.016,2.162-1.49
		c0.098-0.063,0.195-0.126,0.293-0.182c0.273-0.176,0.547-0.344,0.826-0.504c0.378-0.231,0.762-0.447,1.147-0.658
		c0.015-0.014,0.028-0.007,0.028-0.007v-0.007c0.301-0.168,0.594-0.336,0.889-0.512c0.873-0.531,1.714-1.119,2.496-1.762
		c0.008,0.008,0.008,0.008,0.016,0.014c3.622,3.707,8.665,6.009,14.262,6.023h0.09c5.582-0.008,10.633-2.315,14.263-6.016
		l0.007-0.008c0.496,0.412,1.014,0.798,1.545,1.154c0.057,0.043,0.105,0.076,0.162,0.112c0.252,0.168,0.51,0.328,0.77,0.489
		c0.286,0.176,0.58,0.344,0.874,0.504c0.048,0.014,0.083,0.042,0.126,0.063c0.615,0.343,1.225,0.699,1.818,1.078
		c0.049,0.027,0.091,0.055,0.141,0.091c0.237,0.146,0.482,0.3,0.713,0.469c0.581,0.37,1.148,0.776,1.699,1.196h0.015
		c0.707,0.531,1.399,1.084,2.063,1.664c0.672,0.574,1.314,1.176,1.938,1.799c4.016,3.992,7.113,8.903,8.961,14.381
		C100.42,128.422,101.105,132.416,101.105,136.57z"/>
	<path clip-path="url(#SVGID_2_)" fill="#421800" d="M101.91,116.051c-0.049,0.021-0.105,0.043-0.162,0.049
		c-3.678,0.957-18.186-16.523-18.332-34.85c-0.007-1.477,0.07-2.959,0.26-4.448c0.489-3.952,2.393-7.751,3.973-11.577
		c1.245-3.028,2.301-6.063,2.301-9.197c0-16.787-4.867-11.316-18.443-20.375c-3.281-2.183-5.61-3.974-7.437-5.429
		c-5.042-4.001-6.323-5.435-13.24-5.435c-8.8,0-12.297,15.283-13.297,21.816c-1.077,7.029-1.091,18.424,3.295,29.271
		c3.397,8.406,3.399,16.647-3.295,25.803c-2.511,3.436-6.358,15.039-11.136,18.78c-1.488,1.168-3.063,1.574-4.721,0.728
		c-13.053-6.68-5.197-28.118-1.279-41.541c4.217-14.443,5.49-29.084,8.554-43.668c3.454-16.42,17.513-26.43,23.193-22.372
		c1.896-3.399,6.854-4.673,11.925-4.673c3.715,0,7.499,0.693,10.185,1.735C94.992,18.72,95.342,37.94,96.447,45.936
		c0.909,6.603,4.161,12.771,5.301,19.291v0.021c0.246,1.37,0.393,2.77,0.4,4.183c0.048,7.631-0.805,12.793,4.994,19.15
		C111.541,93.4,108.177,113.302,101.91,116.051z"/>
	<g clip-path="url(#SVGID_2_)">
		<path fill="#E7ECF2" d="M64.068,107.718l-0.02,0.035l-0.008,0.014c-1.973,3.063-5.238,4.658-8.533,4.658
			c-2.68,0-5.372-1.056-7.393-3.224l-3.799-4.07c0.644-0.413,1.301-0.799,1.973-1.162c0.014-0.014,0.027-0.007,0.027-0.007v-0.007
			c0.301-0.168,0.595-0.336,0.889-0.512c0.874-0.531,1.715-1.119,2.498-1.762c0.006,0.008,0.006,0.008,0.014,0.014
			c3.623,3.707,8.666,6.009,14.262,6.023L64.068,107.718L64.068,107.718z"/>
		<path fill="#E7ECF2" d="M83.772,105.186l-3.741,4.015c-2.021,2.169-4.715,3.224-7.4,3.224c-3.287,0-6.562-1.594-8.527-4.658
			l-0.006-0.014l-0.029-0.035c5.582-0.008,10.633-2.314,14.263-6.016l0.007-0.007c0.496,0.412,1.014,0.798,1.545,1.153
			c0.057,0.043,0.105,0.077,0.162,0.113c0.252,0.168,0.51,0.328,0.77,0.489c0.286,0.175,0.58,0.343,0.873,0.503
			c0.049,0.015,0.084,0.043,0.127,0.063c0.615,0.343,1.225,0.698,1.818,1.077C83.682,105.123,83.723,105.15,83.772,105.186z"/>
	</g>
</g>
</svg>
